<?xml version="1.0" encoding="UTF-8"?>
<svg version="1.1" xmlns="http://www.w3.org/2000/svg" width="64" height="64">
<path d="M0 0 C2.13701204 1.57487526 4.0441157 3.19456834 6 5 C1.31179066 10.63568661 -3.69985408 15.83103966 -8.8984375 20.99609375 C-9.73339752 21.82963882 -10.56835754 22.6631839 -11.42861938 23.52198792 C-14.07505848 26.16286524 -16.72496759 28.80022896 -19.375 31.4375 C-21.17861643 33.23609649 -22.98200425 35.03492227 -24.78515625 36.83398438 C-29.18746261 41.22531248 -33.59261714 45.61376729 -38 50 C-45.08214111 43.0157919 -48.47988902 37.10219109 -48.5625 26.9375 C-48.37123045 17.23788344 -45.4854809 10.85209878 -38.93359375 3.79296875 C-28.78813091 -5.61464225 -11.81689011 -7.8528378 0 0 Z M-29 3 C-25.81237635 5.12508244 -23.73487777 5.5020163 -20 6 C-20 5.34 -20 4.68 -20 4 C-19.0409375 3.8453125 -19.0409375 3.8453125 -18.0625 3.6875 C-17.381875 3.460625 -16.70125 3.23375 -16 3 C-15.67 2.01 -15.34 1.02 -15 0 C-20.06232884 -0.48990279 -24.32630846 1.2893678 -29 3 Z M-11.75 4.4375 C-12.4925 5.283125 -13.235 6.12875 -14 7 C-13.27731765 10.2985139 -13.27731765 10.2985139 -9.9375 11.6875 C-8.4834375 12.3371875 -8.4834375 12.3371875 -7 13 C-5.02 10.69 -3.04 8.38 -1 6 C-6.23720776 1.51528724 -6.23720776 1.51528724 -11.75 4.4375 Z M-31 9 C-30.01 10.32 -29.02 11.64 -28 13 C-26.68 12.34 -25.36 11.68 -24 11 C-24.33 10.34 -24.66 9.68 -25 9 C-26.98 9 -28.96 9 -31 9 Z M-21.125 14 C-21.74375 14.66 -22.3625 15.32 -23 16 C-21.60667426 19.36720387 -20.0210714 20.9859524 -17 23 C-15.02 20.69 -13.04 18.38 -11 16 C-16.04822248 11.72363213 -16.04822248 11.72363213 -21.125 14 Z M-35 13 C-34.67 15.31 -34.34 17.62 -34 20 C-33.01 19.01 -32.02 18.02 -31 17 C-32.32 15.68 -33.64 14.36 -35 13 Z M-41 15 C-41.53341184 16.57914015 -42.05125763 18.16354387 -42.5625 19.75 C-42.85253906 20.63171875 -43.14257812 21.5134375 -43.44140625 22.421875 C-44.01697435 25.07834316 -43.89248371 26.47031106 -43 29 C-42.01 28.34 -41.02 27.68 -40 27 C-40 26.01 -40 25.02 -40 24 C-39.34 24 -38.68 24 -38 24 C-38.66 21.03 -39.32 18.06 -40 15 C-40.33 15 -40.66 15 -41 15 Z M-28 21 C-29.32 22.65 -30.64 24.3 -32 26 C-29.96197865 30.06024321 -29.96197865 30.06024321 -26 32 C-24.35 30.02 -22.7 28.04 -21 26 C-21.66 26 -22.32 26 -23 26 C-23.4021875 25.0409375 -23.4021875 25.0409375 -23.8125 24.0625 C-24.88667752 21.66868314 -24.88667752 21.66868314 -28 21 Z M-37 30 C-38.7143618 31.95927063 -40.38405168 33.95880212 -42 36 C-40.68 38.31 -39.36 40.62 -38 43 C-35.69 41.02 -33.38 39.04 -31 37 C-32.85529281 33.08268982 -32.85529281 33.08268982 -35 30 C-35.66 30 -36.32 30 -37 30 Z " fill="#101010" transform="translate(48,4)"/>
<path d="M0 0 C6.53410949 6.49147256 10.16527591 11.16716337 10.38061523 20.75976562 C10.35101202 31.58166969 8.23424219 38.29661765 0.79296875 46.27734375 C-6.74350097 53.51826563 -14.29884418 54.41347229 -24.37109375 54.24609375 C-32.64234243 53.68518022 -37.67780482 50.11778488 -44 45 C-39.31179066 39.36431339 -34.30014592 34.16896034 -29.1015625 29.00390625 C-28.26660248 28.17036118 -27.43164246 27.3368161 -26.57138062 26.47801208 C-23.92494152 23.83713476 -21.27503241 21.19977104 -18.625 18.5625 C-16.82138357 16.76390351 -15.01799575 14.96507773 -13.21484375 13.16601562 C-8.81253739 8.77468752 -4.40738286 4.38623271 0 0 Z M-1 7 C-2.98 9.31 -4.96 11.62 -7 14 C-5.02 16.97 -5.02 16.97 -3 20 C0.36720387 18.60667426 1.9859524 17.0210714 4 14 C2.31192092 9.76915097 2.31192092 9.76915097 -1 7 Z M-11 17 C-12.98 19.31 -14.96 21.62 -17 24 C-15.37660195 25.70884005 -13.70680947 27.37446717 -12 29 C-9.75637427 29.2284549 -9.75637427 29.2284549 -7.875 27 C-6.946875 26.01 -6.946875 26.01 -6 25 C-7.2808625 21.35446828 -8.16671013 19.83328987 -11 17 Z M1.75 22.9375 C-0.23946856 26.41906999 -0.09933619 27.0730615 0.75 30.8125 C1.14353243 32.21503129 1.55296694 33.61359341 2 35 C4.1446143 32.8553857 4.44564603 31.98260002 5.125 29.125 C5.37636719 28.10792969 5.37636719 28.10792969 5.6328125 27.0703125 C6.11642208 24.69401467 6.11642208 24.69401467 6 21 C3.7577157 20.78249229 3.7577157 20.78249229 1.75 22.9375 Z M-21 27 C-22.65 28.98 -24.3 30.96 -26 33 C-23.63707344 35.52588702 -22.33537489 36.88820837 -19 38 C-17.68 36.68 -16.36 35.36 -15 34 C-15.79117904 32.00016466 -15.79117904 32.00016466 -17 30 C-17.99 29.67 -18.98 29.34 -20 29 C-20.33 28.34 -20.66 27.68 -21 27 Z M-5 30 C-5.66 31.32 -6.32 32.64 -7 34 C-5.68 34.99 -4.36 35.98 -3 37 C-3 35.02 -3 33.04 -3 31 C-3.66 30.67 -4.32 30.34 -5 30 Z M-31 37 C-32.57840572 38.55705194 -32.57840572 38.55705194 -34.125 40.5 C-34.66382813 41.1496875 -35.20265625 41.799375 -35.7578125 42.46875 C-36.16773438 42.9740625 -36.57765625 43.479375 -37 44 C-33.04 45.98 -33.04 45.98 -29 48 C-27.35 46.35 -25.7 44.7 -24 43 C-25.13719419 39.58841744 -26.04342944 38.88145399 -29 37 C-29.66 37 -30.32 37 -31 37 Z M-12 37 C-12.99 38.485 -12.99 38.485 -14 40 C-11.69 40.33 -9.38 40.66 -7 41 C-8.31200404 39.64567325 -9.64631404 38.31266518 -11 37 C-11.33 37 -11.66 37 -12 37 Z M-20.875 46.4375 C-21.57625 47.283125 -22.2775 48.12875 -23 49 C-17.78020872 49.1799928 -13.92737019 48.97094808 -9 47 C-13.5961656 43.9358896 -16.42457355 42.66431236 -20.875 46.4375 Z " fill="#1FA13B" transform="translate(54,10)"/>
</svg>
