<svg xmlns="http://www.w3.org/2000/svg" width="2rem" height="2rem" class="fill-white" viewBox="0 0 24 24"><path d="M5 10.2c0-1.9 1.5-3.4 3.4-3.4s3.4 1.5 3.4 3.4c0 .7-.6 1.2-1.2 1.2-.7 0-1.2-.6-1.2-1.2 0-.5-.4-.9-.9-.9s-.9.4-.9.9c0 .7-.6 1.2-1.2 1.2S5 10.9 5 10.2m14 5.7c0 .7-.6 1.2-1.2 1.2H6.4c-.7 0-1.2-.6-1.2-1.2 0-.7.6-1.2 1.2-1.2h11.5c.6 0 1.1.6 1.1 1.2m-5.3-5c-.4-.6-.2-1.3.3-1.7l2.9-1.9c.6-.4 1.3-.2 1.7.3.4.6.2 1.3-.3 1.7l-2.9 1.9c-.2.1-.5.2-.7.2-.4.1-.8-.1-1-.5m7.8 7.6c0 .2-.1.5-.3.6l-2.1 2.1c-.2.2-.4.3-.6.3h-13c-.2 0-.5-.1-.6-.3l-2.1-2.1c-.2-.2-.3-.4-.3-.6v-13c0-.2.1-.5.3-.6l2.1-2.1c.1-.2.3-.3.6-.3h13c.2 0 .5.1.6.3l2.1 2.1c.2.2.3.4.3.6v13zm1.8-15.1L20.5.6C20.1.2 19.6 0 19 0H5c-.6 0-1.1.2-1.6.7L.7 3.4C.2 3.9 0 4.4 0 5v14c0 .6.2 1.2.7 1.6l2.8 2.8c.4.4.9.6 1.5.6h14c.6 0 1.2-.2 1.6-.7l2.8-2.8c.4-.4.7-1 .7-1.6V5c-.1-.6-.3-1.1-.8-1.6"/></svg>