<svg version="1.1" id="Layer_1" xmlns="http://www.w3.org/2000/svg" xmlns:xlink="http://www.w3.org/1999/xlink" x="0px" y="0px"
	 width="100%" viewBox="0 0 141 152" enable-background="new 0 0 141 152" xml:space="preserve">
<path fill="none" opacity="1.000000" stroke="none" 
	d="
M86.000000,153.000000 
	C57.357380,153.000000 29.214764,153.000000 1.036072,153.000000 
	C1.036072,102.400658 1.036072,51.801289 1.036072,1.100959 
	C47.892376,1.100959 94.785042,1.100959 141.838852,1.100959 
	C141.838852,51.666248 141.838852,102.333084 141.838852,153.000000 
	C123.468330,153.000000 104.984169,153.000000 86.000000,153.000000 
M67.576584,18.438532 
	C66.582718,18.526333 65.590424,18.642038 64.594765,18.697863 
	C37.386791,20.223398 15.056664,38.925373 8.578063,65.620033 
	C2.277376,91.581619 13.939413,118.977226 37.076233,132.565872 
	C60.499104,146.322510 90.420128,142.955948 110.216469,124.336487 
	C129.674591,106.035141 135.198792,76.486984 123.044273,52.716984 
	C111.734726,30.599449 93.173492,19.453783 67.576584,18.438532 
z"/>
<path fill="#6EB30A" opacity="1.000000" stroke="none" 
	d="
M68.006729,18.434830 
	C93.173492,19.453783 111.734726,30.599449 123.044273,52.716984 
	C135.198792,76.486984 129.674591,106.035141 110.216469,124.336487 
	C90.420128,142.955948 60.499104,146.322510 37.076233,132.565872 
	C13.939413,118.977226 2.277376,91.581619 8.578063,65.620033 
	C15.056664,38.925373 37.386791,20.223398 64.594765,18.697863 
	C65.590424,18.642038 66.582718,18.526333 68.006729,18.434830 
M65.803642,56.609730 
	C64.836159,55.974606 63.905499,55.272808 62.895359,54.714905 
	C54.801311,50.244560 45.865200,48.954018 37.639843,52.494656 
	C27.963892,56.659706 22.455742,64.906227 21.059196,75.809235 
	C19.143663,90.764046 29.615187,105.028023 44.500576,107.299698 
	C51.753796,108.406624 58.298397,106.541191 65.308060,102.653587 
	C66.183304,103.849106 66.905228,105.241791 67.988205,106.244530 
	C72.845398,110.741837 80.724350,108.818466 82.831932,102.745872 
	C85.872581,93.984848 88.968254,85.242920 92.463303,75.288467 
	C95.686775,84.438026 98.434013,92.419106 101.311371,100.352997 
	C104.371544,108.790955 104.425644,108.775154 113.659264,108.107529 
	C113.902458,108.089951 114.123795,107.770157 114.676346,107.343323 
	C107.445015,88.672943 100.179832,69.915169 92.396652,49.819962 
	C85.814812,66.550430 79.793839,81.855225 73.772865,97.160019 
	C73.121353,97.006821 72.469841,96.853615 71.818329,96.700417 
	C78.716866,82.143791 78.856476,68.634140 65.803642,56.609730 
z"/>
<path fill="#D9DBD8" opacity="1.000000" stroke="none" 
	d="
M66.077469,56.846458 
	C78.856476,68.634140 78.716866,82.143791 71.818329,96.700417 
	C72.469841,96.853615 73.121353,97.006821 73.772865,97.160019 
	C79.793839,81.855225 85.814812,66.550430 92.396652,49.819962 
	C100.179832,69.915169 107.445015,88.672943 114.676346,107.343323 
	C114.123795,107.770157 113.902458,108.089951 113.659264,108.107529 
	C104.425644,108.775154 104.371544,108.790955 101.311371,100.352997 
	C98.434013,92.419106 95.686775,84.438026 92.463303,75.288467 
	C88.968254,85.242920 85.872581,93.984848 82.831932,102.745872 
	C80.724350,108.818466 72.845398,110.741837 67.988205,106.244530 
	C66.905228,105.241791 66.183304,103.849106 65.308060,102.653587 
	C58.298397,106.541191 51.753796,108.406624 44.500576,107.299698 
	C29.615187,105.028023 19.143663,90.764046 21.059196,75.809235 
	C22.455742,64.906227 27.963892,56.659706 37.639843,52.494656 
	C45.865200,48.954018 54.801311,50.244560 62.895359,54.714905 
	C63.905499,55.272808 64.836159,55.974606 66.077469,56.846458 
M66.006554,75.909966 
	C64.901100,68.024452 60.696510,62.798519 52.853111,60.841068 
	C48.070953,59.647598 43.647282,60.254189 38.710918,63.841080 
	C47.847271,72.239365 56.165535,79.885643 65.223564,88.211929 
	C65.520203,84.146164 65.788475,80.469131 66.006554,75.909966 
M45.023117,83.477165 
	C41.103001,79.571831 37.182880,75.666504 32.961327,71.460869 
	C29.977942,81.145645 31.905611,89.662437 37.604031,94.194817 
	C43.797581,99.120995 49.952091,99.710724 57.869572,95.231316 
	C53.550438,91.306358 49.527683,87.650726 45.023117,83.477165 
z"/>
<path fill="#6DB00D" opacity="1.000000" stroke="none" 
	d="
M66.031654,76.351028 
	C65.788475,80.469131 65.520203,84.146164 65.223564,88.211929 
	C56.165535,79.885643 47.847271,72.239365 38.710918,63.841080 
	C43.647282,60.254189 48.070953,59.647598 52.853111,60.841068 
	C60.696510,62.798519 64.901100,68.024452 66.031654,76.351028 
z"/>
<path fill="#6FB20D" opacity="1.000000" stroke="none" 
	d="
M45.264023,83.736130 
	C49.527683,87.650726 53.550438,91.306358 57.869572,95.231316 
	C49.952091,99.710724 43.797581,99.120995 37.604031,94.194817 
	C31.905611,89.662437 29.977942,81.145645 32.961327,71.460869 
	C37.182880,75.666504 41.103001,79.571831 45.264023,83.736130 
z"/>
</svg>